<?xml version="1.0" encoding="utf-8"?>
<svg width="939px" height="666px" viewBox="0 0 939 666" version="1.1" xmlns:xlink="http://www.w3.org/1999/xlink" xmlns="http://www.w3.org/2000/svg">
  <desc>Created with Lunacy</desc>
  <defs>
    <linearGradient x1="0.931572735" y1="-1.65185452" x2="1" y2="1" id="gradient_1">
      <stop offset="0" stop-color="#61002E" />
      <stop offset="1" stop-color="#5B9CD4" />
    </linearGradient>
    <linearGradient x1="0" y1="0" x2="0.0409185663" y2="0.911622167" id="gradient_2">
      <stop offset="0" stop-color="#300017" />
      <stop offset="1" stop-color="#000000" />
    </linearGradient>
    <linearGradient x1="0.406360656" y1="-0.05972161" x2="0.408127159" y2="0.9701392" id="gradient_3">
      <stop offset="0" stop-color="#3A3A3A" />
      <stop offset="1" stop-color="#000000" />
    </linearGradient>
    <linearGradient x1="0.291736424" y1="-0.0547240265" x2="0.408127159" y2="0.9701392" id="gradient_4">
      <stop offset="0" stop-color="#3A3A3A" />
      <stop offset="1" stop-color="#000000" />
    </linearGradient>
    <radialGradient gradientUnits="objectBoundingBox" cx="50%" cy="50%" fx="50%" fy="50%" r="50%" gradientTransform="translate(0.5,0.5),scale(0.5714287,1),rotate(90),translate(-0.5,-0.5)" id="gradient_5">
      <stop offset="0%" stop-color="#1F1F1F" />
      <stop offset="54.20168%" stop-color="#363636" />
      <stop offset="100%" stop-color="#000000" />
    </radialGradient>
    <filter filterUnits="userSpaceOnUse" color-interpolation-filters="sRGB" id="filter_1">
      <feFlood flood-opacity="0" result="BackgroundImageFix" />
      <feBlend mode="normal" in="SourceGraphic" in2="BackgroundImageFix" result="shape" />
      <feColorMatrix in="SourceAlpha" type="matrix" values="0 0 0 0 0 0 0 0 0 0 0 0 0 0 0 0 0 0 127 0" result="hardAlpha" />
      <feOffset dx="0" dy="1" />
      <feGaussianBlur stdDeviation="17.5" />
      <feComposite in2="hardAlpha" operator="arithmetic" k2="-1" k3="1" />
      <feColorMatrix type="matrix" values="0 0 0 0 0.5529412 0 0 0 0 0.5529412 0 0 0 0 0.5529412 0 0 0 0.4980392 0" />
      <feBlend mode="normal" in2="shape" result="effect0_innerShadow" />
    </filter>
    <filter filterUnits="userSpaceOnUse" color-interpolation-filters="sRGB" id="filter_2">
      <feFlood flood-opacity="0" result="BackgroundImageFix" />
      <feBlend mode="normal" in="SourceGraphic" in2="BackgroundImageFix" result="shape" />
      <feGaussianBlur stdDeviation="2" result="effect0_gaussianBlur" />
    </filter>
    <filter filterUnits="userSpaceOnUse" color-interpolation-filters="sRGB" id="filter_3">
      <feFlood flood-opacity="0" result="BackgroundImageFix" />
      <feBlend mode="normal" in="SourceGraphic" in2="BackgroundImageFix" result="shape" />
      <feColorMatrix in="SourceAlpha" type="matrix" values="0 0 0 0 0 0 0 0 0 0 0 0 0 0 0 0 0 0 127 0" result="hardAlpha" />
      <feOffset dx="0" dy="0" />
      <feGaussianBlur stdDeviation="2" />
      <feComposite in2="hardAlpha" operator="arithmetic" k2="-1" k3="1" />
      <feColorMatrix type="matrix" values="0 0 0 0 1 0 0 0 0 1 0 0 0 0 1 0 0 0 0.4980392 0" />
      <feBlend mode="normal" in2="shape" result="effect0_innerShadow" />
    </filter>
    <filter filterUnits="userSpaceOnUse" color-interpolation-filters="sRGB" id="filter_4">
      <feFlood flood-opacity="0" result="BackgroundImageFix" />
      <feBlend mode="normal" in="SourceGraphic" in2="BackgroundImageFix" result="shape" />
      <feColorMatrix in="SourceAlpha" type="matrix" values="0 0 0 0 0 0 0 0 0 0 0 0 0 0 0 0 0 0 127 0" result="hardAlpha" />
      <feOffset dx="14" dy="11" />
      <feGaussianBlur stdDeviation="8.5" />
      <feComposite in2="hardAlpha" operator="arithmetic" k2="-1" k3="1" />
      <feColorMatrix type="matrix" values="0 0 0 0 0.509804 0 0 0 0 0.5607843 0 0 0 0 1 0 0 0 0.4980392 0" />
      <feBlend mode="normal" in2="shape" result="effect0_innerShadow" />
    </filter>
    <filter filterUnits="userSpaceOnUse" color-interpolation-filters="sRGB" id="filter_5">
      <feFlood flood-opacity="0" result="BackgroundImageFix" />
      <feColorMatrix in="SourceAlpha" type="matrix" values="0 0 0 0 0 0 0 0 0 0 0 0 0 0 0 0 0 0 127 0" />
      <feOffset dx="0" dy="2" />
      <feGaussianBlur stdDeviation="2" />
      <feColorMatrix type="matrix" values="0 0 0 0 0.3921569 0 0 0 0 0.3921569 0 0 0 0 0.3921569 0 0 0 0.4980392 0" />
      <feBlend mode="normal" in2="BackgroundImageFix" result="effect0_dropShadow" />
      <feBlend mode="normal" in="SourceGraphic" in2="effect0_dropShadow" result="shape" />
      <feColorMatrix in="SourceAlpha" type="matrix" values="0 0 0 0 0 0 0 0 0 0 0 0 0 0 0 0 0 0 127 0" result="hardAlpha" />
      <feOffset dx="0" dy="0" />
      <feGaussianBlur stdDeviation="20" />
      <feComposite in2="hardAlpha" operator="arithmetic" k2="-1" k3="1" />
      <feColorMatrix type="matrix" values="0 0 0 0 0.3568628 0 0 0 0 0 0 0 0 0 0 0 0 0 0.4980392 0" />
      <feBlend mode="normal" in2="shape" result="effect1_innerShadow" />
    </filter>
    <filter filterUnits="userSpaceOnUse" color-interpolation-filters="sRGB" id="filter_6">
      <feFlood flood-opacity="0" result="BackgroundImageFix" />
      <feBlend mode="normal" in="SourceGraphic" in2="BackgroundImageFix" result="shape" />
      <feColorMatrix in="SourceAlpha" type="matrix" values="0 0 0 0 0 0 0 0 0 0 0 0 0 0 0 0 0 0 127 0" result="hardAlpha" />
      <feOffset dx="15" dy="11" />
      <feGaussianBlur stdDeviation="8.5" />
      <feComposite in2="hardAlpha" operator="arithmetic" k2="-1" k3="1" />
      <feColorMatrix type="matrix" values="0 0 0 0 0.509804 0 0 0 0 0.5607843 0 0 0 0 1 0 0 0 0.4980392 0" />
      <feBlend mode="normal" in2="shape" result="effect0_innerShadow" />
    </filter>
    <rect width="939" height="666" id="artboard_1" />
    <clipPath id="clip_1">
      <use xlink:href="#artboard_1" clip-rule="evenodd" />
    </clipPath>
  </defs>
  <g id="Artboard" clip-path="url(#clip_1)">
    <use xlink:href="#artboard_1" stroke="none" fill="#FFFFFF" fill-opacity="0" />
    <g id="Group-2" transform="translate(0.4812012 3)">
      <path d="M0 34.69L25.4999 0.190002L35.9999 0L35.9999 41.1L0 34.69Z" transform="translate(433.5189 7.309998)" id="MidLight" fill="#FB0000" stroke="none" />
      <g id="Group" transform="translate(0 148.5)">
        <path d="M469.5 271.5L0 271.5L0.326367 256.161Q0.5 248 1.93275 239.964L10.0855 194.238Q11.0404 188.882 12.5191 183.647Q13.9978 178.411 15.9858 173.347L38.5 116L38.5001 116Q39.08 114.229 39.7181 112.479Q40.3561 110.729 41.0514 109Q41.7468 107.272 42.4988 105.568Q43.2508 103.863 44.0585 102.184Q44.8663 100.506 45.7289 98.8543Q46.5916 97.2031 47.5082 95.5812Q48.4249 93.9594 49.3945 92.3686Q50.3641 90.7778 51.3856 89.2199Q52.4071 87.6619 53.4795 86.1385Q54.5518 84.6151 55.6737 83.1278Q56.7957 81.6406 57.9661 80.1911Q59.1365 78.7417 60.354 77.3316Q61.5716 75.9216 62.835 74.5524Q64.0983 73.1832 65.4061 71.8565Q66.714 70.5297 68.0648 69.2468Q69.4156 67.9639 70.8081 66.7262L93 47L118 10L299.5 1L469.5 0L469.5 271.5Z" transform="translate(0.01879883 0)" id="Body" fill="url(#gradient_1)" stroke="none" />
        <path d="M15.999 0L112.001 0Q112.394 0 112.786 0.0192715Q113.178 0.038543 113.569 0.0770395Q113.96 0.115536 114.349 0.173165Q114.737 0.230794 115.122 0.307416Q115.507 0.384039 115.888 0.47947Q116.269 0.574901 116.645 0.688911Q117.021 0.802922 117.391 0.935236Q117.761 1.06755 118.124 1.21785Q118.486 1.36815 118.841 1.53607Q119.196 1.704 119.543 1.88914Q119.889 2.07428 120.226 2.2762Q120.563 2.47812 120.89 2.69632Q121.216 2.91452 121.532 3.14848Q121.847 3.38245 122.151 3.63161Q122.454 3.88077 122.745 4.14452Q123.036 4.40828 123.314 4.686Q123.592 4.96372 123.855 5.25473Q124.119 5.54574 124.368 5.84934Q124.618 6.15294 124.851 6.46841Q125.085 6.78387 125.304 7.11043Q125.522 7.43699 125.724 7.77387Q125.926 8.11075 126.111 8.45712Q126.296 8.8035 126.464 9.15855Q126.632 9.51359 126.782 9.87645Q126.932 10.2393 127.065 10.6091Q127.197 10.9789 127.311 11.3547Q127.425 11.7306 127.521 12.1116Q127.616 12.4925 127.693 12.8777Q127.769 13.263 127.827 13.6515Q127.884 14.04 127.923 14.4308Q127.961 14.8217 127.981 15.214Q128 15.6062 128 15.999L128 184.001Q128 184.394 127.981 184.786Q127.961 185.178 127.923 185.569Q127.884 185.96 127.827 186.349Q127.769 186.737 127.693 187.122Q127.616 187.507 127.521 187.888Q127.425 188.269 127.311 188.645Q127.197 189.021 127.065 189.391Q126.932 189.761 126.782 190.124Q126.632 190.486 126.464 190.841Q126.296 191.196 126.111 191.543Q125.926 191.889 125.724 192.226Q125.522 192.563 125.304 192.89Q125.085 193.216 124.852 193.532Q124.618 193.847 124.368 194.151Q124.119 194.454 123.855 194.745Q123.592 195.036 123.314 195.314Q123.036 195.592 122.745 195.855Q122.454 196.119 122.151 196.368Q121.847 196.618 121.532 196.851Q121.216 197.085 120.89 197.304Q120.563 197.522 120.226 197.724Q119.889 197.926 119.543 198.111Q119.196 198.296 118.841 198.464Q118.486 198.632 118.124 198.782Q117.761 198.932 117.391 199.065Q117.021 199.197 116.645 199.311Q116.269 199.425 115.888 199.521Q115.507 199.616 115.122 199.693Q114.737 199.769 114.349 199.827Q113.96 199.884 113.569 199.923Q113.178 199.961 112.786 199.981Q112.394 200 112.001 200L15.999 200Q15.6062 200 15.214 199.981Q14.8217 199.961 14.4308 199.923Q14.04 199.884 13.6515 199.827Q13.263 199.769 12.8777 199.693Q12.4925 199.616 12.1116 199.521Q11.7306 199.425 11.3547 199.311Q10.9789 199.197 10.6091 199.065Q10.2393 198.932 9.87645 198.782Q9.51359 198.632 9.15855 198.464Q8.8035 198.296 8.45712 198.111Q8.11075 197.926 7.77387 197.724Q7.43699 197.522 7.11043 197.304Q6.78387 197.085 6.46841 196.851Q6.15294 196.618 5.84934 196.368Q5.54574 196.119 5.25473 195.855Q4.96372 195.592 4.686 195.314Q4.40828 195.036 4.14452 194.745Q3.88077 194.454 3.63161 194.151Q3.38245 193.847 3.14848 193.532Q2.91452 193.216 2.69632 192.89Q2.47812 192.563 2.2762 192.226Q2.07428 191.889 1.88914 191.543Q1.704 191.196 1.53607 190.841Q1.36815 190.486 1.21785 190.124Q1.06755 189.761 0.935236 189.391Q0.802922 189.021 0.688911 188.645Q0.574901 188.269 0.47947 187.888Q0.384039 187.507 0.307416 187.122Q0.230794 186.737 0.173165 186.349Q0.115536 185.96 0.0770395 185.569Q0.038543 185.178 0.0192715 184.786Q0 184.394 0 184.001L0 15.999Q0 15.6062 0.0192715 15.214Q0.038543 14.8217 0.0770395 14.4308Q0.115536 14.04 0.173165 13.6515Q0.230794 13.263 0.307416 12.8777Q0.384039 12.4925 0.47947 12.1116Q0.574901 11.7306 0.688911 11.3547Q0.802922 10.9789 0.935236 10.6091Q1.06755 10.2393 1.21785 9.87645Q1.36815 9.51359 1.53607 9.15855Q1.704 8.8035 1.88914 8.45712Q2.07428 8.11075 2.2762 7.77387Q2.47812 7.43699 2.69632 7.11043Q2.91452 6.78387 3.14848 6.46841Q3.38245 6.15294 3.63161 5.84934Q3.88077 5.54574 4.14452 5.25473Q4.40828 4.96372 4.686 4.686Q4.96372 4.40828 5.25473 4.14452Q5.54574 3.88077 5.84934 3.63161Q6.15294 3.38245 6.46841 3.14848Q6.78387 2.91452 7.11043 2.69632Q7.43699 2.47812 7.77387 2.2762Q8.11075 2.07428 8.45712 1.88914Q8.8035 1.704 9.15855 1.53607Q9.51359 1.36815 9.87645 1.21785Q10.2393 1.06755 10.6091 0.935236Q10.9789 0.802922 11.3547 0.688911Q11.7306 0.574901 12.1116 0.47947Q12.4925 0.384039 12.8777 0.307416Q13.263 0.230794 13.6515 0.173165Q14.04 0.115536 14.4308 0.0770395Q14.8217 0.038543 15.214 0.0192715Q15.6062 0 15.999 0Z" transform="translate(16.5188 311.4999)" id="Wheel" fill="#000000" stroke="none" />
        <g filter="url(#filter_1)">
          <path d="M148.31 104.499L147.19 162.001Q147.181 162.484 147.148 162.966Q147.115 163.448 147.059 163.928Q147.003 164.407 146.924 164.884Q146.845 165.36 146.743 165.833Q146.641 166.305 146.517 166.772Q146.392 167.238 146.245 167.698Q146.098 168.159 145.929 168.611Q145.76 169.064 145.569 169.507Q145.378 169.951 145.166 170.385Q144.955 170.819 144.722 171.243Q144.489 171.666 144.236 172.078Q143.984 172.489 143.711 172.888Q143.439 173.287 143.147 173.673Q142.856 174.058 142.547 174.429Q142.237 174.8 141.91 175.155Q141.583 175.51 141.239 175.85Q140.895 176.189 140.535 176.511Q140.175 176.833 139.8 177.138Q139.425 177.442 139.036 177.728Q138.646 178.014 138.244 178.281Q137.841 178.548 137.426 178.795Q137.011 179.042 136.584 179.269Q136.158 179.496 135.721 179.702Q135.284 179.908 134.837 180.092Q134.391 180.277 133.936 180.44Q133.481 180.603 133.019 180.743Q132.557 180.884 132.089 181.002Q131.62 181.12 131.147 181.216Q130.673 181.311 130.196 181.384Q129.718 181.456 129.238 181.506Q128.757 181.555 128.275 181.581Q127.792 181.607 127.309 181.61L59.3104 181.999L20.3086 181.668C9.26389 181.574 0.24221 172.545 0.180612 161.5C-0.0678971 116.941 -0.40587 13.0418 1.81035 8.49854C4.63517 2.70763 11.9597 0 11.9597 0L148.31 1.49854L148.31 104.499Z" transform="translate(0.5187683 303.5001)" id="Mudflap" fill="#000000" stroke="none" />
        </g>
        <path d="M271.331 206.607L223.019 204.5L153.64 204.849Q153.623 204.85 153.605 204.85L130.014 204.994Q129.019 205 128.027 205.085L100.253 207.471Q95.721 207.861 91.1741 207.727Q86.6272 207.594 82.1257 206.939L35.6338 200.18Q34.6413 200.036 33.66 199.828Q32.6788 199.621 31.7127 199.351Q30.7467 199.081 29.7999 198.751Q28.853 198.42 27.9293 198.029Q27.0055 197.639 26.1086 197.19Q25.2116 196.741 24.3452 196.236Q23.4788 195.731 22.6464 195.171Q21.814 194.612 21.019 194L21.0185 194Q20.2475 193.407 19.5383 192.741Q18.8291 192.075 18.1885 191.343Q17.5478 190.611 16.9819 189.82Q16.416 189.029 15.9303 188.186Q15.4446 187.344 15.0437 186.458Q14.6429 185.571 14.3307 184.65Q14.0185 183.729 13.798 182.781Q13.5775 181.834 13.4508 180.87L6.71455 129.586C6.71455 129.586 2.0188 81.5 2.0188 81.5C2.0188 81.5 -0.236948 38.8589 0.0204671 38C0.277883 37.1411 25.5204 35.5 25.5204 35.5L191.53 31.0966Q194.294 31.0232 197.05 30.7942Q199.805 30.5651 202.543 30.1811Q205.282 29.797 207.994 29.2592Q210.706 28.7213 213.384 28.0314Q216.061 27.3415 218.696 26.5017Q221.33 25.6619 223.913 24.6749Q226.496 23.6879 229.019 22.5569Q231.542 21.4258 233.997 20.1543L255.977 8.77169Q257.7 7.87929 259.473 7.08968Q261.246 6.30007 263.062 5.61598Q264.878 4.93189 266.731 4.35569Q268.584 3.77948 270.468 3.31315Q272.351 2.84682 274.259 2.49198Q276.167 2.13713 278.093 1.895Q280.018 1.65287 281.954 1.52428Q283.891 1.3957 285.831 1.38111L469.519 0L469.519 208L271.331 206.607Z" transform="translate(1.438567E-08 231.5)" id="Bumper" fill="url(#gradient_2)" stroke="none" />
      </g>
      <g id="Bumper-Enhancers" transform="translate(41.5188 444)">
        <g filter="url(#filter_2)">
          <path d="M1 0L1 64" transform="translate(230 80)" id="Line-8" fill="none" stroke="#383838" stroke-width="8" />
        </g>
        <path d="M0 81.53L27.8866 43.4588Q28.7445 42.2876 29.6361 41.1417Q30.5276 39.9958 31.4521 38.8763Q32.3765 37.7569 33.3331 36.6647Q34.2897 35.5725 35.2776 34.5085Q36.2654 33.4446 37.2838 32.4098Q38.3021 31.375 39.3501 30.3701Q40.398 29.3653 41.4747 28.3913Q42.5514 27.4174 43.6559 26.4751Q44.7604 25.5328 45.8918 24.6229Q47.0232 23.7131 48.1806 22.8364Q49.3379 21.9598 50.5202 21.1172Q51.7025 20.2745 52.9088 19.4666Q54.115 18.6586 55.3442 17.886Q56.5735 17.1134 57.8246 16.3768Q59.0757 15.6402 60.3477 14.9402Q61.6197 14.2403 62.9114 13.5775Q64.2032 12.9148 65.5136 12.2898Q66.8241 11.6649 68.1522 11.0782Q69.4802 10.4916 70.8247 9.94371Q72.1693 9.39586 73.5291 8.88727Q74.889 8.37869 76.263 7.90979Q77.6371 7.4409 79.0242 7.01209Q80.4113 6.58329 81.8102 6.19493Q83.2092 5.80658 84.6188 5.459Q86.0284 5.11142 87.4476 4.80491Q88.8667 4.4984 90.2941 4.23322Q91.7215 3.96804 93.1561 3.74441Q94.5906 3.52078 96.031 3.33889Q97.4714 3.157 98.9165 3.01701Q100.362 2.87701 101.81 2.77903Q103.259 2.68105 104.709 2.62516Q106.16 2.56927 107.612 2.55553L377.5 0" transform="translate(50.5 62.46997)" id="Line-8" fill="none" stroke="#FF0000" stroke-width="5" />
        <path d="M2.89361e-07 8.09671L6.33456e-08 29.501Q6.17906e-08 29.6483 0.00722612 29.7954Q0.0144522 29.9424 0.0288869 30.089Q0.0433216 30.2356 0.0649302 30.3812Q0.0865387 30.5269 0.115269 30.6713Q0.144 30.8158 0.179783 30.9586Q0.215566 31.1015 0.258315 31.2424Q0.301064 31.3833 0.350677 31.522Q0.40029 31.6607 0.456647 31.7967Q0.513003 31.9328 0.575968 32.0659Q0.638933 32.199 0.708354 32.3289Q0.777776 32.4588 0.853486 32.5851Q0.929196 32.7114 1.01101 32.8339Q1.09283 32.9563 1.18056 33.0746Q1.26828 33.1929 1.36171 33.3067Q1.45514 33.4206 1.55403 33.5297Q1.65293 33.6388 1.75707 33.7429Q1.8612 33.8471 1.97032 33.946Q2.07944 34.0449 2.19327 34.1383Q2.30711 34.2317 2.4254 34.3194Q2.54369 34.4072 2.66613 34.489Q2.78858 34.5708 2.9149 34.6465Q3.04121 34.7222 3.17109 34.7916Q3.30097 34.8611 3.4341 34.924Q3.56722 34.987 3.70328 35.0433Q3.83934 35.0997 3.978 35.1493Q4.11666 35.1989 4.25758 35.2417Q4.39851 35.2844 4.54136 35.3202Q4.68421 35.356 4.82865 35.3847Q4.97309 35.4135 5.11876 35.4351Q5.26444 35.4567 5.411 35.4711Q5.55755 35.4855 5.70464 35.4928Q5.85173 35.5 5.999 35.5L38.1879 35.5Q38.8575 35.5 39.5263 35.4668Q40.1952 35.4336 40.8615 35.3673Q41.5279 35.301 42.1901 35.2017Q42.8524 35.1024 43.5089 34.9705Q44.1654 34.8385 44.8146 34.6741Q45.4638 34.5098 46.104 34.3134Q46.7442 34.1171 47.3739 33.8892Q48.0036 33.6614 48.6212 33.4026Q49.2389 33.1438 49.8429 32.8548Q50.447 32.5657 51.0359 32.247Q51.6249 31.9283 52.1973 31.5809Q52.7698 31.2334 53.3243 30.858Q53.8788 30.4825 54.414 30.0801Q54.9493 29.6776 55.4639 29.2491Q55.9785 28.8206 56.4712 28.3672Q56.964 27.9137 57.4336 27.4363L78.5974 5.92559Q78.7494 5.77114 78.8753 5.59484Q79.0012 5.41853 79.098 5.22471Q79.1948 5.03088 79.2601 4.8243Q79.3255 4.61771 79.3577 4.40346Q79.3899 4.18921 79.3882 3.97255Q79.3865 3.7559 79.3509 3.54218Q79.3153 3.32845 79.2468 3.12292Q79.1783 2.91739 79.0784 2.7251L79.0778 2.72392Q78.9739 2.52373 78.8439 2.33934Q78.714 2.15496 78.5604 1.98973Q78.4069 1.82451 78.2324 1.68145Q78.0581 1.53839 77.866 1.4201Q77.6739 1.30181 77.4677 1.21044Q77.2615 1.11907 77.0448 1.05629Q76.8281 0.993499 76.605 0.960435Q76.3819 0.927371 76.1563 0.924633L8.09611 0.0982969Q7.89824 0.0958945 7.7005 0.103279Q7.50275 0.110664 7.30561 0.127817Q7.10848 0.14497 6.91243 0.17185Q6.71638 0.19873 6.5219 0.235271Q6.32742 0.271812 6.13499 0.317925Q5.94255 0.364038 5.75263 0.41961Q5.56271 0.475181 5.37577 0.540076Q5.18883 0.60497 5.00533 0.679029Q4.82183 0.753088 4.64222 0.836129Q4.4626 0.919171 4.28731 1.01099Q4.11202 1.10281 3.94149 1.20319Q3.77095 1.30357 3.60559 1.41225Q3.44023 1.52094 3.28044 1.63767Q3.12065 1.7544 2.96683 1.87889Q2.81301 2.00338 2.66554 2.13532Q2.51806 2.26726 2.37729 2.40633Q2.23652 2.5454 2.1028 2.69127Q1.96908 2.83713 1.84273 2.98942Q1.71638 3.14172 1.59772 3.30008Q1.47906 3.45844 1.36838 3.62247Q1.25769 3.7865 1.15525 3.9558Q1.05281 4.12511 0.958869 4.29927Q0.864926 4.47343 0.77971 4.65202Q0.694494 4.83062 0.618213 5.01321Q0.541932 5.1958 0.474773 5.38193Q0.407613 5.56807 0.34974 5.7573Q0.291867 5.94653 0.243421 6.13839Q0.194976 6.33026 0.156076 6.52428Q0.117177 6.7183 0.0879184 6.91401Q0.0586602 7.10971 0.0391149 7.30663Q0.0195696 7.50354 0.00978492 7.70118Q2.91451e-07 7.89883 2.89361e-07 8.09671L2.89361e-07 8.09671Z" id="Line-9" fill="url(#gradient_3)" stroke="#4D4D4D" stroke-width="1" />
        <g filter="url(#filter_2)">
          <path d="M1 0L1 64" transform="translate(373 80)" id="Line-8-Copy" fill="none" stroke="#383838" stroke-width="8" />
        </g>
        <g filter="url(#filter_3)">
          <path d="M0 35C0 15.67 15.67 0 35 0C54.33 0 70 15.67 70 35C70 54.33 54.33 70 35 70C15.67 70 0 54.33 0 35Z" transform="translate(111 90)" id="Ellipse" fill="#000000" stroke="#858585" stroke-width="3" />
        </g>
      </g>
      <g id="Body-Enhanders" transform="translate(46.5188 206.5)">
        <path d="M0 0L18.5 47L18.5003 47.0005Q18.7987 47.5832 19.1158 48.156Q19.433 48.7288 19.7684 49.2911Q20.1038 49.8534 20.4572 50.4046Q20.8106 50.9557 21.1816 51.4952Q21.5525 52.0347 21.9407 52.5619Q22.3289 53.0892 22.7339 53.6036Q23.1389 54.118 23.5603 54.6191Q23.9816 55.1202 24.4189 55.6075Q24.8563 56.0948 25.3091 56.5677Q25.7619 57.0406 26.2297 57.4986Q26.6975 57.9566 27.1799 58.3994Q27.6622 58.8421 28.1586 59.269Q28.655 59.6959 29.1649 60.1067Q29.6748 60.5173 30.1976 60.9114Q30.7205 61.3054 31.2558 61.6824Q31.7911 62.0594 32.3383 62.4189Q32.8855 62.7784 33.444 63.1201Q34.0025 63.4617 34.5717 63.7852Q35.141 64.1087 35.7203 64.4136Q36.2997 64.7186 36.8886 65.0047Q37.4775 65.2908 38.0753 65.5577Q38.6732 65.8247 39.2793 66.0722Q39.8854 66.3198 40.4992 66.5476Q41.113 66.7755 41.7338 66.9834Q42.3547 67.1914 42.9819 67.3792Q43.6091 67.567 44.242 67.7345Q44.875 67.902 45.513 68.049Q46.151 68.196 46.7934 68.3223Q47.4358 68.4486 48.082 68.5541Q48.7281 68.6597 49.3774 68.7443Q50.0266 68.829 50.6782 68.8926Q51.3298 68.9563 51.9832 68.9989L52 69L276 69" transform="translate(148 0)" id="Line-7" fill="none" stroke="#4D4D4D" stroke-width="3" />
        <path d="M13 7.5C23.5387 1.67178 102.487 0.344593 127.75 0.0677361C132.03 0.0208278 135.5 0 135.5 0L138.001 2.75063Q138.13 2.89317 138.247 3.04655Q138.363 3.19993 138.466 3.36296Q138.568 3.52599 138.656 3.69741Q138.744 3.86883 138.817 4.04732Q138.889 4.2258 138.946 4.40997Q139.002 4.59413 139.042 4.78255Q139.082 4.97097 139.106 5.16218Q139.129 5.35339 139.136 5.54592Q139.142 5.73845 139.132 5.9308Q139.121 6.12316 139.094 6.31384Q139.067 6.50453 139.023 6.69208Q138.979 6.87962 138.918 7.06258Q138.858 7.24553 138.782 7.42247Q138.706 7.59942 138.614 7.76898Q138.523 7.93854 138.417 8.09941Q138.311 8.26028 138.191 8.41121L121.633 29.2882Q121.392 29.5924 121.135 29.8827Q120.877 30.173 120.603 30.4486Q120.33 30.7242 120.042 30.9843Q119.753 31.2443 119.451 31.4879Q119.149 31.7316 118.834 31.9581Q118.518 32.1846 118.191 32.3933Q117.864 32.602 117.525 32.7923Q117.187 32.9825 116.839 33.1537Q116.49 33.3249 116.133 33.4765Q115.775 33.6281 115.41 33.7597Q115.045 33.8913 114.673 34.0024Q114.301 34.1136 113.923 34.2039Q113.546 34.2943 113.164 34.3636Q112.782 34.4328 112.397 34.4809Q112.011 34.5289 111.624 34.5555Q111.237 34.582 110.849 34.5871L3 36L1.9692 33.5948C0.881643 31.0572 0.115927 26.7488 0.788148 24.0711C2.01141 19.1982 5.12057 11.8576 13 7.5Z" transform="translate(0 160.5)" id="Line-9" fill="url(#gradient_3)" stroke="#4D4D4D" stroke-width="2" />
      </g>
      <path d="M32.5 101L19 98L11 107L0 108L17.8317 79.4691Q18.8768 77.797 19.9796 76.1623Q21.0824 74.5276 22.2415 72.9324Q23.4007 71.3372 24.6148 69.7834Q25.8289 68.2296 27.0965 66.7192Q28.3641 65.2087 29.6836 63.7434Q31.0031 62.278 32.3729 60.8596Q33.7427 59.4412 35.1612 58.0715Q36.5797 56.7017 38.0451 55.3823Q39.5105 54.0629 41.0211 52.7954Q42.5317 51.5279 44.0855 50.3139Q45.6394 49.0999 47.2346 47.9408Q48.8299 46.7818 50.4646 45.6791Q52.0994 44.5764 53.7716 43.5314Q55.4438 42.4864 57.1515 41.5004Q58.8591 40.5144 60.6002 39.5886Q62.3412 38.6627 64.1134 37.7982L67.7401 36.0291C83.6236 28.2811 110.59 19.4113 127.98 16.2633C144.969 13.188 163.145 9.93887 166.5 9.5C176.045 8.2513 208.541 2.74235 245.5 1.50001C245.5 1.50001 350.5 0 350.5 0L350.5 8.22002L345.276 9.39692L319 43.0001L304 43.0001C304 43.0001 321.5 20 321.5 20C321.5 20 285.375 13.75 250 14C214.625 14.25 180 21 180 21L174.394 50.8677L157.501 51.0002C157.501 51.0002 155 23.5 155 23.5C155 23.5 140 22.375 118 28C95.9998 33.625 89.9998 35.5 70.4998 45C56.9715 51.5907 48.2562 59.3846 44.187 63.5402C42.6418 65.1182 42.6869 67.8402 44.1514 69.4935L52.9238 79.397L32.5 101Z" transform="translate(119.019 0)" id="Spoiler" fill="url(#gradient_4)" stroke="none" />
      <g filter="url(#filter_4)">
        <path d="M0 82.5C0 82.5 9.5 64.6219 9.5 64.6219C9.5 64.6219 16.7225 52.2112 26.5 41.6219C30.5828 37.2001 34.9176 32.9625 38.582 29.5264C43.416 24.9935 52.6829 20.0844 59.117 18.4977C65.9971 16.801 75.3409 14.6246 85.5 12.6219C92.2008 11.3009 99.7005 10.0362 106.779 8.92974C122.057 6.54171 147.022 4.42294 162.469 3.71109L241.984 0.0468363Q243 0 244.017 0.00761713L317.031 0.55426L338.5 0.820007L338.5 112.87L31.8908 114L0 82.5Z" transform="translate(131.0188 42)" id="Line-4" fill="#000000" stroke="none" />
      </g>
      <g filter="url(#filter_5)">
        <path d="M9.14892 87.0001C2.64892 81.5812 -2.86984 72.1089 1.64902 65.0001C6.16787 57.8913 15.0065 37.9283 20.1496 28C27.6504 13.5203 32.581 5.06931 34.6054 1.70483C35.1746 0.758848 36.109 0.770537 36.7838 1.64435C38.3069 3.61669 41.3298 6.80648 45.6492 8.00001C52.091 9.78002 180.796 19.3384 191.247 25.5169C201.697 31.6953 214.589 37.102 214.149 42C213.709 46.898 192.65 62.5001 192.65 62.5001L192.649 62.5003Q191.421 63.6982 190.142 64.8409Q188.862 65.9835 187.534 67.0687Q186.205 68.1538 184.83 69.1793Q183.455 70.2049 182.036 71.1688Q180.617 72.1327 179.157 73.0332Q177.697 73.9337 176.198 74.7689Q174.7 75.6042 173.166 76.3726Q171.632 77.141 170.066 77.841Q168.5 78.5411 166.905 79.1715Q165.309 79.8018 163.688 80.3613Q162.066 80.9207 160.421 81.4082Q158.777 81.8956 157.112 82.3101Q155.447 82.7246 153.766 83.0653Q152.085 83.406 150.39 83.6723Q148.695 83.9386 146.991 84.1299Q145.286 84.3213 143.574 84.4373L113.149 86.5002C113.149 86.5002 77.649 86 77.649 86C77.649 86 52.0882 86.245 39.649 90C27.2097 93.755 15.6489 92.4191 9.14892 87.0001Z" transform="translate(97.3699 120)" id="Tailight" fill="#FF0000" stroke="#808080" stroke-width="1" />
      </g>
    </g>
    <g id="Group-2-Copy" transform="matrix(-1 0 0 1 938.5187 3)">
      <path d="M0 34.69L25.4999 0.190002L35.9999 0L35.9999 41.1L0 34.69Z" transform="translate(433.5189 7.309998)" id="MidLight" fill="#FB0000" stroke="none" />
      <g id="Group" transform="translate(0 148.5)">
        <path d="M470 271.5L0 271.5L0.326534 256.169Q0.500533 248 1.93626 239.956L10.0946 194.247Q11.0513 188.887 12.5328 183.647Q14.0142 178.407 16.0059 173.34L38.541 116L38.5411 116Q39.1217 114.229 39.7603 112.479Q40.3989 110.729 41.095 109.001Q41.791 107.272 42.5436 105.568Q43.2963 103.864 44.1047 102.185Q44.9132 100.506 45.7765 98.8554Q46.6399 97.2044 47.5572 95.5827Q48.4746 93.9611 49.4449 92.3706Q50.4153 90.7801 51.4375 89.2224Q52.4598 87.6648 53.5329 86.1417Q54.6059 84.6186 55.7287 83.1318Q56.8514 81.6449 58.0226 80.1959Q59.1937 78.7469 60.412 77.3372Q61.6304 75.9277 62.8945 74.559Q64.1586 73.1903 65.4672 71.8641Q66.7758 70.5379 68.1274 69.2555Q69.4791 67.9732 70.8722 66.7361L93.0991 47L118.126 10L299.819 1L470 0L470 271.5Z" transform="translate(0.01879883 0)" id="Body" fill="url(#gradient_1)" stroke="none" />
        <path d="M15.999 0L112.001 0Q112.394 0 112.786 0.0192715Q113.178 0.038543 113.569 0.0770395Q113.96 0.115536 114.349 0.173165Q114.737 0.230794 115.122 0.307416Q115.507 0.384039 115.888 0.47947Q116.269 0.574901 116.645 0.688911Q117.021 0.802922 117.391 0.935236Q117.761 1.06755 118.124 1.21785Q118.486 1.36815 118.841 1.53607Q119.196 1.704 119.543 1.88914Q119.889 2.07428 120.226 2.2762Q120.563 2.47812 120.89 2.69632Q121.216 2.91452 121.532 3.14848Q121.847 3.38245 122.151 3.63161Q122.454 3.88077 122.745 4.14452Q123.036 4.40828 123.314 4.686Q123.592 4.96372 123.855 5.25473Q124.119 5.54574 124.368 5.84934Q124.618 6.15294 124.851 6.46841Q125.085 6.78387 125.304 7.11043Q125.522 7.43699 125.724 7.77387Q125.926 8.11075 126.111 8.45712Q126.296 8.8035 126.464 9.15855Q126.632 9.51359 126.782 9.87645Q126.932 10.2393 127.065 10.6091Q127.197 10.9789 127.311 11.3547Q127.425 11.7306 127.521 12.1116Q127.616 12.4925 127.693 12.8777Q127.769 13.263 127.827 13.6515Q127.884 14.04 127.923 14.4308Q127.961 14.8217 127.981 15.214Q128 15.6062 128 15.999L128 184.001Q128 184.394 127.981 184.786Q127.961 185.178 127.923 185.569Q127.884 185.96 127.827 186.349Q127.769 186.737 127.693 187.122Q127.616 187.507 127.521 187.888Q127.425 188.269 127.311 188.645Q127.197 189.021 127.065 189.391Q126.932 189.761 126.782 190.124Q126.632 190.486 126.464 190.841Q126.296 191.196 126.111 191.543Q125.926 191.889 125.724 192.226Q125.522 192.563 125.304 192.89Q125.085 193.216 124.852 193.532Q124.618 193.847 124.368 194.151Q124.119 194.454 123.855 194.745Q123.592 195.036 123.314 195.314Q123.036 195.592 122.745 195.855Q122.454 196.119 122.151 196.368Q121.847 196.618 121.532 196.851Q121.216 197.085 120.89 197.304Q120.563 197.522 120.226 197.724Q119.889 197.926 119.543 198.111Q119.196 198.296 118.841 198.464Q118.486 198.632 118.124 198.782Q117.761 198.932 117.391 199.065Q117.021 199.197 116.645 199.311Q116.269 199.425 115.888 199.521Q115.507 199.616 115.122 199.693Q114.737 199.769 114.349 199.827Q113.96 199.884 113.569 199.923Q113.178 199.961 112.786 199.981Q112.394 200 112.001 200L15.999 200Q15.6062 200 15.214 199.981Q14.8217 199.961 14.4308 199.923Q14.04 199.884 13.6515 199.827Q13.263 199.769 12.8777 199.693Q12.4925 199.616 12.1116 199.521Q11.7306 199.425 11.3547 199.311Q10.9789 199.197 10.6091 199.065Q10.2393 198.932 9.87645 198.782Q9.51359 198.632 9.15855 198.464Q8.8035 198.296 8.45712 198.111Q8.11075 197.926 7.77387 197.724Q7.43699 197.522 7.11043 197.304Q6.78387 197.085 6.46841 196.851Q6.15294 196.618 5.84934 196.368Q5.54574 196.119 5.25473 195.855Q4.96372 195.592 4.686 195.314Q4.40828 195.036 4.14452 194.745Q3.88077 194.454 3.63161 194.151Q3.38245 193.847 3.14848 193.532Q2.91452 193.216 2.69632 192.89Q2.47812 192.563 2.2762 192.226Q2.07428 191.889 1.88914 191.543Q1.704 191.196 1.53607 190.841Q1.36815 190.486 1.21785 190.124Q1.06755 189.761 0.935236 189.391Q0.802922 189.021 0.688911 188.645Q0.574901 188.269 0.47947 187.888Q0.384039 187.507 0.307416 187.122Q0.230794 186.737 0.173165 186.349Q0.115536 185.96 0.0770395 185.569Q0.038543 185.178 0.0192715 184.786Q0 184.394 0 184.001L0 15.999Q0 15.6062 0.0192715 15.214Q0.038543 14.8217 0.0770395 14.4308Q0.115536 14.04 0.173165 13.6515Q0.230794 13.263 0.307416 12.8777Q0.384039 12.4925 0.47947 12.1116Q0.574901 11.7306 0.688911 11.3547Q0.802922 10.9789 0.935236 10.6091Q1.06755 10.2393 1.21785 9.87645Q1.36815 9.51359 1.53607 9.15855Q1.704 8.8035 1.88914 8.45712Q2.07428 8.11075 2.2762 7.77387Q2.47812 7.43699 2.69632 7.11043Q2.91452 6.78387 3.14848 6.46841Q3.38245 6.15294 3.63161 5.84934Q3.88077 5.54574 4.14452 5.25473Q4.40828 4.96372 4.686 4.686Q4.96372 4.40828 5.25473 4.14452Q5.54574 3.88077 5.84934 3.63161Q6.15294 3.38245 6.46841 3.14848Q6.78387 2.91452 7.11043 2.69632Q7.43699 2.47812 7.77387 2.2762Q8.11075 2.07428 8.45712 1.88914Q8.8035 1.704 9.15855 1.53607Q9.51359 1.36815 9.87645 1.21785Q10.2393 1.06755 10.6091 0.935236Q10.9789 0.802922 11.3547 0.688911Q11.7306 0.574901 12.1116 0.47947Q12.4925 0.384039 12.8777 0.307416Q13.263 0.230794 13.6515 0.173165Q14.04 0.115536 14.4308 0.0770395Q14.8217 0.038543 15.214 0.0192715Q15.6062 0 15.999 0Z" transform="translate(16.5188 311.4999)" id="Wheel" fill="#000000" stroke="none" />
        <g filter="url(#filter_1)">
          <path d="M148.31 104.499L147.19 162.001Q147.181 162.484 147.148 162.966Q147.115 163.448 147.059 163.928Q147.003 164.407 146.924 164.884Q146.845 165.36 146.743 165.833Q146.641 166.305 146.517 166.772Q146.392 167.238 146.245 167.698Q146.098 168.159 145.929 168.611Q145.76 169.064 145.569 169.507Q145.378 169.951 145.166 170.385Q144.955 170.819 144.722 171.243Q144.489 171.666 144.236 172.078Q143.984 172.489 143.711 172.888Q143.439 173.287 143.147 173.673Q142.856 174.058 142.547 174.429Q142.237 174.8 141.91 175.155Q141.583 175.51 141.239 175.85Q140.895 176.189 140.535 176.511Q140.175 176.833 139.8 177.138Q139.425 177.442 139.036 177.728Q138.646 178.014 138.244 178.281Q137.841 178.548 137.426 178.795Q137.011 179.042 136.584 179.269Q136.158 179.496 135.721 179.702Q135.284 179.908 134.837 180.092Q134.391 180.277 133.936 180.44Q133.481 180.603 133.019 180.743Q132.557 180.884 132.089 181.002Q131.62 181.12 131.147 181.216Q130.673 181.311 130.196 181.384Q129.718 181.456 129.238 181.506Q128.757 181.555 128.275 181.581Q127.792 181.607 127.309 181.61L59.3104 181.999L20.3086 181.668C9.26389 181.574 0.24221 172.545 0.180612 161.5C-0.0678971 116.941 -0.40587 13.0418 1.81035 8.49854C4.63517 2.70763 11.9597 0 11.9597 0L148.31 1.49854L148.31 104.499Z" transform="translate(0.5187988 303.5001)" id="Mudflap" fill="#000000" stroke="none" />
        </g>
        <path d="M271.331 206.607L223.019 204.5L153.64 204.849Q153.623 204.85 153.605 204.85L130.014 204.994Q129.019 205 128.027 205.085L100.253 207.471Q95.721 207.861 91.1741 207.727Q86.6272 207.594 82.1257 206.939L35.6338 200.18Q34.6413 200.036 33.66 199.828Q32.6788 199.621 31.7127 199.351Q30.7467 199.081 29.7999 198.751Q28.853 198.42 27.9293 198.029Q27.0055 197.639 26.1086 197.19Q25.2116 196.741 24.3452 196.236Q23.4788 195.731 22.6464 195.171Q21.814 194.612 21.019 194L21.0185 194Q20.2475 193.407 19.5383 192.741Q18.8291 192.075 18.1885 191.343Q17.5478 190.611 16.9819 189.82Q16.416 189.029 15.9303 188.186Q15.4446 187.344 15.0437 186.458Q14.6429 185.571 14.3307 184.65Q14.0185 183.729 13.798 182.781Q13.5775 181.834 13.4508 180.87L6.71455 129.586C6.71455 129.586 2.0188 81.5 2.0188 81.5C2.0188 81.5 -0.236948 38.8589 0.0204671 38C0.277883 37.1411 25.5204 35.5 25.5204 35.5L191.53 31.0966Q194.294 31.0232 197.05 30.7942Q199.805 30.5651 202.543 30.1811Q205.282 29.797 207.994 29.2592Q210.706 28.7213 213.384 28.0314Q216.061 27.3415 218.696 26.5017Q221.33 25.6619 223.913 24.6749Q226.496 23.6879 229.019 22.5569Q231.542 21.4258 233.997 20.1543L255.977 8.77169Q257.7 7.87929 259.473 7.08968Q261.246 6.30007 263.062 5.61598Q264.878 4.93189 266.731 4.35569Q268.584 3.77948 270.468 3.31315Q272.351 2.84682 274.259 2.49198Q276.167 2.13713 278.093 1.895Q280.018 1.65287 281.954 1.52428Q283.891 1.3957 285.831 1.38111L469.519 0L469.519 208L271.331 206.607Z" transform="translate(1.438567E-08 231.5)" id="Bumper" fill="url(#gradient_2)" stroke="none" />
      </g>
      <g id="Bumper-Enhancers" transform="translate(41.5188 444)">
        <g filter="url(#filter_2)">
          <path d="M1 0L1 64" transform="translate(230 80)" id="Line-8" fill="none" stroke="#383838" stroke-width="8" />
        </g>
        <path d="M0 81.53L27.8866 43.4588Q28.7445 42.2876 29.6361 41.1417Q30.5276 39.9958 31.4521 38.8763Q32.3765 37.7569 33.3331 36.6647Q34.2897 35.5725 35.2776 34.5085Q36.2654 33.4446 37.2838 32.4098Q38.3021 31.375 39.3501 30.3701Q40.398 29.3653 41.4747 28.3913Q42.5514 27.4174 43.6559 26.4751Q44.7604 25.5328 45.8918 24.6229Q47.0232 23.7131 48.1806 22.8364Q49.3379 21.9598 50.5202 21.1172Q51.7025 20.2745 52.9088 19.4666Q54.115 18.6586 55.3442 17.886Q56.5735 17.1134 57.8246 16.3768Q59.0757 15.6402 60.3477 14.9402Q61.6197 14.2403 62.9114 13.5775Q64.2032 12.9148 65.5136 12.2898Q66.8241 11.6649 68.1522 11.0782Q69.4802 10.4916 70.8247 9.94371Q72.1693 9.39586 73.5291 8.88727Q74.889 8.37869 76.263 7.90979Q77.6371 7.4409 79.0242 7.01209Q80.4113 6.58329 81.8102 6.19493Q83.2092 5.80658 84.6188 5.459Q86.0284 5.11142 87.4476 4.80491Q88.8667 4.4984 90.2941 4.23322Q91.7215 3.96804 93.1561 3.74441Q94.5906 3.52078 96.031 3.33889Q97.4714 3.157 98.9165 3.01701Q100.362 2.87701 101.81 2.77903Q103.259 2.68105 104.709 2.62516Q106.16 2.56927 107.612 2.55553L377.5 0" transform="translate(50.5 62.46997)" id="Line-8" fill="none" stroke="#FF0000" stroke-width="5" />
        <path d="M2.89361e-07 8.09671L6.33456e-08 29.501Q6.17906e-08 29.6483 0.00722612 29.7954Q0.0144522 29.9424 0.0288869 30.089Q0.0433216 30.2356 0.0649302 30.3812Q0.0865387 30.5269 0.115269 30.6713Q0.144 30.8158 0.179783 30.9586Q0.215566 31.1015 0.258315 31.2424Q0.301064 31.3833 0.350677 31.522Q0.40029 31.6607 0.456647 31.7967Q0.513003 31.9328 0.575968 32.0659Q0.638933 32.199 0.708354 32.3289Q0.777776 32.4588 0.853486 32.5851Q0.929196 32.7114 1.01101 32.8339Q1.09283 32.9563 1.18056 33.0746Q1.26828 33.1929 1.36171 33.3067Q1.45514 33.4206 1.55403 33.5297Q1.65293 33.6388 1.75707 33.7429Q1.8612 33.8471 1.97032 33.946Q2.07944 34.0449 2.19327 34.1383Q2.30711 34.2317 2.4254 34.3194Q2.54369 34.4072 2.66613 34.489Q2.78858 34.5708 2.9149 34.6465Q3.04121 34.7222 3.17109 34.7916Q3.30097 34.8611 3.4341 34.924Q3.56722 34.987 3.70328 35.0433Q3.83934 35.0997 3.978 35.1493Q4.11666 35.1989 4.25758 35.2417Q4.39851 35.2844 4.54136 35.3202Q4.68421 35.356 4.82865 35.3847Q4.97309 35.4135 5.11876 35.4351Q5.26444 35.4567 5.411 35.4711Q5.55755 35.4855 5.70464 35.4928Q5.85173 35.5 5.999 35.5L38.1879 35.5Q38.8575 35.5 39.5263 35.4668Q40.1952 35.4336 40.8615 35.3673Q41.5279 35.301 42.1901 35.2017Q42.8524 35.1024 43.5089 34.9705Q44.1654 34.8385 44.8146 34.6741Q45.4638 34.5098 46.104 34.3134Q46.7442 34.1171 47.3739 33.8892Q48.0036 33.6614 48.6212 33.4026Q49.2389 33.1438 49.8429 32.8548Q50.447 32.5657 51.0359 32.247Q51.6249 31.9283 52.1973 31.5809Q52.7698 31.2334 53.3243 30.858Q53.8788 30.4825 54.414 30.0801Q54.9493 29.6776 55.4639 29.2491Q55.9785 28.8206 56.4712 28.3672Q56.964 27.9137 57.4336 27.4363L78.5974 5.92559Q78.7494 5.77114 78.8753 5.59484Q79.0012 5.41853 79.098 5.22471Q79.1948 5.03088 79.2601 4.8243Q79.3255 4.61771 79.3577 4.40346Q79.3899 4.18921 79.3882 3.97255Q79.3865 3.7559 79.3509 3.54218Q79.3153 3.32845 79.2468 3.12292Q79.1783 2.91739 79.0784 2.7251L79.0778 2.72392Q78.9739 2.52373 78.8439 2.33934Q78.714 2.15496 78.5604 1.98973Q78.4069 1.82451 78.2324 1.68145Q78.0581 1.53839 77.866 1.4201Q77.6739 1.30181 77.4677 1.21044Q77.2615 1.11907 77.0448 1.05629Q76.8281 0.993499 76.605 0.960435Q76.3819 0.927371 76.1563 0.924633L8.09611 0.0982969Q7.89824 0.0958945 7.7005 0.103279Q7.50275 0.110664 7.30561 0.127817Q7.10848 0.14497 6.91243 0.17185Q6.71638 0.19873 6.5219 0.235271Q6.32742 0.271812 6.13499 0.317925Q5.94255 0.364038 5.75263 0.41961Q5.56271 0.475181 5.37577 0.540076Q5.18883 0.60497 5.00533 0.679029Q4.82183 0.753088 4.64222 0.836129Q4.4626 0.919171 4.28731 1.01099Q4.11202 1.10281 3.94149 1.20319Q3.77095 1.30357 3.60559 1.41225Q3.44023 1.52094 3.28044 1.63767Q3.12065 1.7544 2.96683 1.87889Q2.81301 2.00338 2.66554 2.13532Q2.51806 2.26726 2.37729 2.40633Q2.23652 2.5454 2.1028 2.69127Q1.96908 2.83713 1.84273 2.98942Q1.71638 3.14172 1.59772 3.30008Q1.47906 3.45844 1.36838 3.62247Q1.25769 3.7865 1.15525 3.9558Q1.05281 4.12511 0.958869 4.29927Q0.864926 4.47343 0.77971 4.65202Q0.694494 4.83062 0.618213 5.01321Q0.541932 5.1958 0.474773 5.38193Q0.407613 5.56807 0.34974 5.7573Q0.291867 5.94653 0.243421 6.13839Q0.194976 6.33026 0.156076 6.52428Q0.117177 6.7183 0.0879184 6.91401Q0.0586602 7.10971 0.0391149 7.30663Q0.0195696 7.50354 0.00978492 7.70118Q2.91451e-07 7.89883 2.89361e-07 8.09671L2.89361e-07 8.09671Z" id="Line-9" fill="url(#gradient_3)" stroke="#4D4D4D" stroke-width="1" />
        <g filter="url(#filter_2)">
          <path d="M1 0L1 64" transform="translate(373 80)" id="Line-8-Copy" fill="none" stroke="#383838" stroke-width="8" />
        </g>
        <g filter="url(#filter_3)">
          <path d="M0 35C0 15.67 15.67 0 35 0C54.33 0 70 15.67 70 35C70 54.33 54.33 70 35 70C15.67 70 0 54.33 0 35Z" transform="translate(111 90)" id="Ellipse" fill="#000000" stroke="#858585" stroke-width="3" />
        </g>
      </g>
      <g id="Body-Enhanders" transform="translate(46.5188 206.5)">
        <path d="M0 0L18.5 47L18.5003 47.0005Q18.7987 47.5832 19.1158 48.156Q19.433 48.7288 19.7684 49.2911Q20.1038 49.8534 20.4572 50.4046Q20.8106 50.9557 21.1816 51.4952Q21.5525 52.0347 21.9407 52.5619Q22.3289 53.0892 22.7339 53.6036Q23.1389 54.118 23.5603 54.6191Q23.9816 55.1202 24.4189 55.6075Q24.8563 56.0948 25.3091 56.5677Q25.7619 57.0406 26.2297 57.4986Q26.6975 57.9566 27.1799 58.3994Q27.6622 58.8421 28.1586 59.269Q28.655 59.6959 29.1649 60.1067Q29.6748 60.5173 30.1976 60.9114Q30.7205 61.3054 31.2558 61.6824Q31.7911 62.0594 32.3383 62.4189Q32.8855 62.7784 33.444 63.1201Q34.0025 63.4617 34.5717 63.7852Q35.141 64.1087 35.7203 64.4136Q36.2997 64.7186 36.8886 65.0047Q37.4775 65.2908 38.0753 65.5577Q38.6732 65.8247 39.2793 66.0722Q39.8854 66.3198 40.4992 66.5476Q41.113 66.7755 41.7338 66.9834Q42.3547 67.1914 42.9819 67.3792Q43.6091 67.567 44.242 67.7345Q44.875 67.902 45.513 68.049Q46.151 68.196 46.7934 68.3223Q47.4358 68.4486 48.082 68.5541Q48.7281 68.6597 49.3774 68.7443Q50.0266 68.829 50.6782 68.8926Q51.3298 68.9563 51.9832 68.9989L52 69L276 69" transform="translate(148 0)" id="Line-7" fill="none" stroke="#4D4D4D" stroke-width="3" />
        <path d="M13 7.5C23.5387 1.67178 102.487 0.344593 127.75 0.0677361C132.03 0.0208278 135.5 0 135.5 0L138.001 2.75063Q138.13 2.89317 138.247 3.04655Q138.363 3.19993 138.466 3.36296Q138.568 3.52599 138.656 3.69741Q138.744 3.86883 138.817 4.04732Q138.889 4.2258 138.946 4.40997Q139.002 4.59413 139.042 4.78255Q139.082 4.97097 139.106 5.16218Q139.129 5.35339 139.136 5.54592Q139.142 5.73845 139.132 5.9308Q139.121 6.12316 139.094 6.31384Q139.067 6.50453 139.023 6.69208Q138.979 6.87962 138.918 7.06258Q138.858 7.24553 138.782 7.42247Q138.706 7.59942 138.614 7.76898Q138.523 7.93854 138.417 8.09941Q138.311 8.26028 138.191 8.41121L121.633 29.2882Q121.392 29.5924 121.135 29.8827Q120.877 30.173 120.603 30.4486Q120.33 30.7242 120.042 30.9843Q119.753 31.2443 119.451 31.4879Q119.149 31.7316 118.834 31.9581Q118.518 32.1846 118.191 32.3933Q117.864 32.602 117.525 32.7923Q117.187 32.9825 116.839 33.1537Q116.49 33.3249 116.133 33.4765Q115.775 33.6281 115.41 33.7597Q115.045 33.8913 114.673 34.0024Q114.301 34.1136 113.923 34.2039Q113.546 34.2943 113.164 34.3636Q112.782 34.4328 112.397 34.4809Q112.011 34.5289 111.624 34.5555Q111.237 34.582 110.849 34.5871L3 36L1.9692 33.5948C0.881643 31.0572 0.115927 26.7488 0.788148 24.0711C2.01141 19.1982 5.12057 11.8576 13 7.5Z" transform="translate(0 160.5)" id="Line-9" fill="url(#gradient_3)" stroke="#4D4D4D" stroke-width="2" />
      </g>
      <path d="M32.5 101L19 98L11 107L0 108L17.8317 79.4691Q18.8768 77.797 19.9796 76.1623Q21.0824 74.5276 22.2415 72.9324Q23.4007 71.3372 24.6148 69.7834Q25.8289 68.2296 27.0965 66.7192Q28.3641 65.2087 29.6836 63.7434Q31.0031 62.278 32.3729 60.8596Q33.7427 59.4412 35.1612 58.0715Q36.5797 56.7017 38.0451 55.3823Q39.5105 54.0629 41.0211 52.7954Q42.5317 51.5279 44.0855 50.3139Q45.6394 49.0999 47.2346 47.9408Q48.8299 46.7818 50.4646 45.6791Q52.0994 44.5764 53.7716 43.5314Q55.4438 42.4864 57.1515 41.5004Q58.8591 40.5144 60.6002 39.5886Q62.3412 38.6627 64.1134 37.7982L67.7401 36.0291C83.6236 28.2811 110.59 19.4113 127.98 16.2633C144.969 13.188 163.145 9.93887 166.5 9.5C176.045 8.2513 208.541 2.74235 245.5 1.50001C245.5 1.50001 350.5 0 350.5 0L350.5 8.22002L345.276 9.39692L319 43.0001L304 43.0001C304 43.0001 321.5 20 321.5 20C321.5 20 285.375 13.75 250 14C214.625 14.25 180 21 180 21L174.394 50.8677L157.501 51.0002C157.501 51.0002 155 23.5 155 23.5C155 23.5 140 22.375 118 28C95.9998 33.625 89.9998 35.5 70.4998 45C56.9715 51.5907 48.2562 59.3846 44.187 63.5402C42.6418 65.1182 42.6869 67.8402 44.1514 69.4935L52.9238 79.397L32.5 101Z" transform="translate(119.019 0)" id="Spoiler" fill="url(#gradient_4)" stroke="none" />
      <g filter="url(#filter_6)">
        <path d="M0 82.5C0 82.5 9.5 64.6219 9.5 64.6219C9.5 64.6219 16.7225 52.2112 26.5 41.6219C30.5828 37.2001 34.9176 32.9625 38.582 29.5264C43.416 24.9935 52.6829 20.0844 59.117 18.4977C65.9971 16.801 75.3409 14.6246 85.5 12.6219C92.2008 11.3009 99.7005 10.0362 106.779 8.92974C122.057 6.54171 147.022 4.42294 162.469 3.71109L241.984 0.0468363Q243 0 244.017 0.00761713L317.031 0.55426L338.5 0.820007L338.5 112.87L31.8908 114L0 82.5Z" transform="translate(131.0188 42)" id="Line-4" fill="#000000" stroke="none" />
      </g>
      <g filter="url(#filter_5)">
        <path d="M9.14892 87.0001C2.64892 81.5812 -2.86984 72.1089 1.64902 65.0001C6.16787 57.8913 15.0065 37.9283 20.1496 28C27.6504 13.5203 32.581 5.06931 34.6054 1.70483C35.1746 0.758848 36.109 0.770537 36.7838 1.64435C38.3069 3.61669 41.3298 6.80648 45.6492 8.00001C52.091 9.78002 180.796 19.3384 191.247 25.5169C201.697 31.6953 214.589 37.102 214.149 42C213.709 46.898 192.65 62.5001 192.65 62.5001L192.649 62.5003Q191.421 63.6982 190.142 64.8409Q188.862 65.9835 187.534 67.0687Q186.205 68.1538 184.83 69.1793Q183.455 70.2049 182.036 71.1688Q180.617 72.1327 179.157 73.0332Q177.697 73.9337 176.198 74.7689Q174.7 75.6042 173.166 76.3726Q171.632 77.141 170.066 77.841Q168.5 78.5411 166.905 79.1715Q165.309 79.8018 163.688 80.3613Q162.066 80.9207 160.421 81.4082Q158.777 81.8956 157.112 82.3101Q155.447 82.7246 153.766 83.0653Q152.085 83.406 150.39 83.6723Q148.695 83.9386 146.991 84.1299Q145.286 84.3213 143.574 84.4373L113.149 86.5002C113.149 86.5002 77.649 86 77.649 86C77.649 86 52.0882 86.245 39.649 90C27.2097 93.755 15.6489 92.4191 9.14892 87.0001Z" transform="translate(97.36987 120)" id="Tailight" fill="#FF0000" stroke="#808080" stroke-width="1" />
      </g>
    </g>
    <g id="New-group" transform="translate(405.9999 382)">
      <path d="M7.999 0L118.001 0Q118.197 0 118.393 0.00963514Q118.59 0.0192703 118.785 0.0385174Q118.98 0.0577644 119.175 0.0865771Q119.369 0.11539 119.562 0.153699Q119.754 0.192007 119.945 0.23972Q120.135 0.287433 120.323 0.344434Q120.511 0.401436 120.696 0.467589Q120.881 0.533742 121.062 0.608888Q121.243 0.684033 121.421 0.76799Q121.599 0.851946 121.772 0.944512Q121.945 1.03708 122.113 1.13803Q122.282 1.23898 122.445 1.34807Q122.608 1.45717 122.766 1.57414Q122.924 1.69112 123.076 1.81569Q123.227 1.94026 123.373 2.07213Q123.518 2.204 123.657 2.34285Q123.796 2.4817 123.928 2.6272Q124.06 2.7727 124.184 2.92449Q124.309 3.07628 124.426 3.234Q124.543 3.39172 124.652 3.55499Q124.761 3.71826 124.862 3.88669Q124.963 4.05512 125.055 4.2283Q125.148 4.40148 125.232 4.57899Q125.316 4.7565 125.391 4.93791Q125.466 5.11933 125.532 5.30422Q125.599 5.4891 125.656 5.67701Q125.713 5.86492 125.76 6.0554Q125.808 6.24588 125.846 6.43847Q125.885 6.63106 125.913 6.8253Q125.942 7.01954 125.961 7.21496Q125.981 7.41038 125.99 7.60651Q126 7.80264 126 7.999L126 64.001Q126 64.1974 125.99 64.3935Q125.981 64.5896 125.961 64.785Q125.942 64.9805 125.913 65.1747Q125.885 65.3689 125.846 65.5615Q125.808 65.7541 125.76 65.9446Q125.713 66.1351 125.656 66.323Q125.599 66.5109 125.532 66.6958Q125.466 66.8807 125.391 67.0621Q125.316 67.2435 125.232 67.421Q125.148 67.5985 125.055 67.7717Q124.963 67.9449 124.862 68.1133Q124.761 68.2817 124.652 68.445Q124.543 68.6083 124.426 68.766Q124.309 68.9237 124.184 69.0755Q124.06 69.2273 123.928 69.3728Q123.796 69.5183 123.657 69.6571Q123.518 69.796 123.373 69.9279Q123.227 70.0597 123.076 70.1843Q122.924 70.3089 122.766 70.4258Q122.608 70.5428 122.445 70.6519Q122.282 70.761 122.113 70.862Q121.945 70.9629 121.772 71.0555Q121.599 71.148 121.421 71.232Q121.243 71.316 121.062 71.3911Q120.881 71.4662 120.696 71.5324Q120.511 71.5986 120.323 71.6556Q120.135 71.7126 119.945 71.7603Q119.754 71.808 119.562 71.8463Q119.369 71.8846 119.175 71.9134Q118.98 71.9422 118.785 71.9615Q118.59 71.9807 118.394 71.9904Q118.197 72 118.001 72L7.999 72Q7.80264 72 7.60651 71.9904Q7.41038 71.9807 7.21496 71.9615Q7.01954 71.9422 6.8253 71.9134Q6.63106 71.8846 6.43847 71.8463Q6.24588 71.808 6.0554 71.7603Q5.86492 71.7126 5.67701 71.6556Q5.4891 71.5986 5.30422 71.5324Q5.11933 71.4662 4.93791 71.3911Q4.7565 71.316 4.57899 71.232Q4.40148 71.148 4.2283 71.0555Q4.05512 70.9629 3.88669 70.862Q3.71826 70.761 3.55499 70.6519Q3.39172 70.5428 3.234 70.4258Q3.07628 70.3089 2.92449 70.1843Q2.7727 70.0597 2.6272 69.9279Q2.4817 69.796 2.34285 69.6571Q2.204 69.5183 2.07213 69.3728Q1.94026 69.2273 1.81569 69.0755Q1.69112 68.9237 1.57414 68.766Q1.45717 68.6083 1.34807 68.445Q1.23898 68.2817 1.13803 68.1133Q1.03708 67.9449 0.944512 67.7717Q0.851946 67.5985 0.76799 67.421Q0.684033 67.2435 0.608888 67.0621Q0.533742 66.8807 0.467589 66.6958Q0.401436 66.5109 0.344434 66.323Q0.287433 66.1351 0.23972 65.9446Q0.192007 65.7541 0.153699 65.5615Q0.11539 65.3689 0.0865771 65.1747Q0.0577644 64.9805 0.0385174 64.785Q0.0192703 64.5896 0.00963514 64.3935Q0 64.1974 0 64.001L0 7.999Q0 7.80264 0.00963514 7.60651Q0.0192703 7.41038 0.0385174 7.21496Q0.0577644 7.01954 0.0865771 6.8253Q0.11539 6.63106 0.153699 6.43847Q0.192007 6.24588 0.23972 6.0554Q0.287433 5.86492 0.344434 5.67701Q0.401436 5.4891 0.467589 5.30422Q0.533742 5.11933 0.608888 4.93791Q0.684033 4.7565 0.76799 4.57899Q0.851946 4.40148 0.944512 4.2283Q1.03708 4.05512 1.13803 3.88669Q1.23898 3.71826 1.34807 3.55499Q1.45717 3.39172 1.57414 3.234Q1.69112 3.07628 1.81569 2.92449Q1.94026 2.7727 2.07213 2.6272Q2.204 2.4817 2.34285 2.34285Q2.4817 2.204 2.6272 2.07213Q2.7727 1.94026 2.92449 1.81569Q3.07628 1.69112 3.234 1.57414Q3.39172 1.45717 3.55499 1.34807Q3.71826 1.23898 3.88669 1.13803Q4.05512 1.03708 4.2283 0.944512Q4.40148 0.851946 4.57899 0.76799Q4.7565 0.684033 4.93791 0.608888Q5.11933 0.533742 5.30422 0.467589Q5.4891 0.401436 5.67701 0.344434Q5.86492 0.287433 6.0554 0.23972Q6.24588 0.192007 6.43847 0.153699Q6.63106 0.11539 6.8253 0.0865771Q7.01954 0.0577644 7.21496 0.0385174Q7.41038 0.0192703 7.60651 0.00963514Q7.80264 0 7.999 0Z" id="Rectangle" fill="#D6D6D6" stroke="#FF0000" stroke-width="7" />
      <g id="VRRRMM" transform="translate(0.0001220703 0)">
        <path d="M13.2 26.8529L9.69 26.8529L14.55 46.5029L19.17 46.5029L23.97 26.8529L20.49 26.8529L16.89 43.3529L13.2 26.8529ZM32.84 39.4229Q33.02 39.4229 34.64 39.3329Q36.53 42.8729 37.88 46.5029L41.24 46.5029Q39.83 42.5729 37.76 38.6429Q41.12 37.0529 41.12 33.1529Q41.12 29.7629 39.44 28.3079Q37.76 26.8529 34.49 26.8529L28.31 26.8529L28.31 46.5029L31.43 46.5029L31.43 39.4229L32.84 39.4229ZM52.54 39.3329Q50.92 39.4229 50.74 39.4229L49.33 39.4229L49.33 46.5029L46.21 46.5029L46.21 26.8529L52.39 26.8529Q55.66 26.8529 57.34 28.3079Q59.02 29.7629 59.02 33.1529Q59.02 37.0529 55.66 38.6429Q57.73 42.5729 59.14 46.5029L55.78 46.5029Q54.43 42.8729 52.54 39.3329ZM68.64 39.4229Q68.82 39.4229 70.44 39.3329Q72.33 42.8729 73.68 46.5029L77.04 46.5029Q75.63 42.5729 73.56 38.6429Q76.92 37.0529 76.92 33.1529Q76.92 29.7629 75.24 28.3079Q73.56 26.8529 70.29 26.8529L64.11 26.8529L64.11 46.5029L67.23 46.5029L67.23 39.4229L68.64 39.4229ZM81.53 46.5029L81.53 26.8529L84.5 26.8529L88.28 37.1129L88.52 37.1129L92.3 26.8529L95.27 26.8529L95.27 46.5029L92.45 46.5029L92.54 33.2129L92.42 33.2129L89.87 39.8429L86.93 39.8429L84.38 33.2129L84.26 33.2129L84.35 46.5029L81.53 46.5029ZM99.43 26.8529L99.43 46.5029L102.25 46.5029L102.16 33.2129L102.28 33.2129L104.83 39.8429L107.77 39.8429L110.32 33.2129L110.44 33.2129L110.35 46.5029L113.17 46.5029L113.17 26.8529L110.2 26.8529L106.42 37.1129L106.18 37.1129L102.4 26.8529L99.43 26.8529ZM31.43 29.6129L33.89 29.6129Q36.02 29.6129 36.98 30.4379Q37.94 31.2629 37.94 33.1529Q37.94 36.5429 33.92 36.5429L31.43 36.5429L31.43 29.6129ZM51.79 29.6129L49.33 29.6129L49.33 36.5429L51.82 36.5429Q55.84 36.5429 55.84 33.1529Q55.84 31.2629 54.88 30.4379Q53.92 29.6129 51.79 29.6129ZM67.23 29.6129L69.69 29.6129Q71.82 29.6129 72.78 30.4379Q73.74 31.2629 73.74 33.1529Q73.74 36.5429 69.72 36.5429L67.23 36.5429L67.23 29.6129Z" />
      </g>
    </g>
    <path d="M0 18C0 8.05888 14.103 0 31.5 0C48.897 0 63 8.05888 63 18C63 27.9411 48.897 36 31.5 36C14.103 36 0 27.9411 0 18Z" transform="translate(438 208)" id="Ellipse" fill="url(#gradient_5)" stroke="none" />
  </g>
</svg>